<svg id="Layer_1" version="1.1" viewBox="0 0 187.992 53.543" xml:space="preserve" xmlns="http://www.w3.org/2000/svg"><path d="M29.045 28.493c0-.542-.285-1.04-.753-1.309l-12.469-7.176a1.471 1.471 0 0 0-.687-.198h-.129c-.238.01-.475.074-.688.198L1.85 27.184a1.512 1.512 0 0 0-.754 1.309l.027 19.322c0 .269.14.519.376.65a.723.723 0 0 0 .748 0l7.41-4.243c.469-.278.754-.77.754-1.307v-9.027c0-.538.285-1.036.752-1.304l3.155-1.817a1.495 1.495 0 0 1 1.504 0l3.154 1.817c.467.268.753.766.753 1.304v9.027c0 .537.289 1.031.755 1.307l7.408 4.243a.732.732 0 0 0 .753 0 .754.754 0 0 0 .374-.65l.026-19.322zM95.625 1.931a.755.755 0 0 0-1.121.657v19.135a.528.528 0 0 1-.79.456l-3.123-1.799a1.504 1.504 0 0 0-1.505.001L76.612 27.58a1.506 1.506 0 0 0-.753 1.304v14.4c0 .538.287 1.035.753 1.305l12.473 7.204c.466.269 1.04.269 1.507 0l12.475-7.204c.466-.27.753-.767.753-1.305V7.389c0-.546-.295-1.049-.772-1.315l-7.423-4.143zm-1.157 36.623a.378.378 0 0 1-.188.326l-4.283 2.469a.377.377 0 0 1-.376 0l-4.283-2.469a.374.374 0 0 1-.188-.326v-4.945c0-.134.072-.259.188-.326l4.283-2.474a.379.379 0 0 1 .377 0l4.283 2.474a.378.378 0 0 1 .188.326l-.001 4.945zM140.252 33.479c.464-.27.749-.766.749-1.302v-3.49c0-.537-.286-1.033-.75-1.303l-12.394-7.196a1.504 1.504 0 0 0-1.509-.002l-12.469 7.199a1.506 1.506 0 0 0-.753 1.304v14.397c0 .541.291 1.041.761 1.309l12.392 7.061a1.503 1.503 0 0 0 1.477.008l7.495-4.166a.75.75 0 0 0 .009-1.311l-12.548-7.202a.753.753 0 0 1-.378-.653V33.62c0-.269.144-.518.377-.652l3.905-2.252a.754.754 0 0 1 .752 0l3.907 2.252a.753.753 0 0 1 .377.652v3.55a.753.753 0 0 0 1.131.652l7.469-4.343z" fill="#333"/><path d="M51.727 20.111a1.506 1.506 0 0 1 1.506 0l12.472 7.197c.466.269.753.766.753 1.305v14.406c0 .538-.287 1.035-.753 1.305l-12.472 7.203a1.508 1.508 0 0 1-1.507 0l-12.469-7.203a1.508 1.508 0 0 1-.753-1.305V28.613c0-.538.287-1.035.753-1.304l12.47-7.198zM164.468 51.732a2.46 2.46 0 0 1-1.233-.33l-3.927-2.323c-.586-.328-.3-.444-.107-.512.782-.271.941-.334 1.775-.808.087-.049.202-.03.292.022l3.017 1.791a.385.385 0 0 0 .364 0l11.761-6.788a.372.372 0 0 0 .18-.318V28.894a.377.377 0 0 0-.183-.324l-11.756-6.782a.37.37 0 0 0-.362 0l-11.753 6.784a.377.377 0 0 0-.186.322v13.572c0 .13.072.253.185.314l3.222 1.861c1.748.874 2.818-.155 2.818-1.189v-13.4c0-.189.152-.339.342-.339h1.491a.34.34 0 0 1 .341.339v13.4c0 2.333-1.27 3.671-3.482 3.671-.68 0-1.215 0-2.709-.736l-3.084-1.775a2.483 2.483 0 0 1-1.233-2.146V28.894a2.48 2.48 0 0 1 1.233-2.144l11.761-6.796a2.577 2.577 0 0 1 2.472 0l11.76 6.796a2.482 2.482 0 0 1 1.235 2.144v13.572c0 .882-.474 1.702-1.235 2.146l-11.76 6.79c-.377.218-.803.33-1.239.33z" fill="#80BD01"/><path d="M168.101 42.382c-5.146 0-6.225-2.362-6.225-4.344 0-.188.151-.339.34-.339h1.52c.17 0 .311.122.338.288.229 1.548.914 2.329 4.026 2.329 2.478 0 3.532-.561 3.532-1.875 0-.758-.299-1.32-4.149-1.697-3.218-.318-5.208-1.029-5.208-3.604 0-2.373 2-3.788 5.354-3.788 3.768 0 5.632 1.308 5.868 4.113a.343.343 0 0 1-.09.262.347.347 0 0 1-.249.108h-1.526a.338.338 0 0 1-.33-.266c-.366-1.629-1.257-2.149-3.673-2.149-2.705 0-3.02.942-3.02 1.648 0 .855.371 1.104 4.023 1.588 3.614.478 5.331 1.154 5.331 3.694.001 2.564-2.135 4.032-5.862 4.032zM126.919 32.805a.287.287 0 0 1 .289 0l2.394 1.381a.291.291 0 0 1 .145.251v2.764a.287.287 0 0 1-.145.25l-2.394 1.381a.287.287 0 0 1-.289 0l-2.392-1.381a.29.29 0 0 1-.145-.25v-2.764c0-.104.055-.199.145-.251l2.392-1.381zM186.841 23.632a2.273 2.273 0 0 1-2.267 2.267 2.273 2.273 0 0 1-2.267-2.267 2.273 2.273 0 0 1 2.267-2.267c1.224 0 2.267.984 2.267 2.267zm-4.167-.006c0 1.056.852 1.907 1.895 1.907 1.056 0 1.907-.87 1.907-1.907a1.902 1.902 0 0 0-1.907-1.895 1.89 1.89 0 0 0-1.895 1.895zm1.049-1.265h.876c.3 0 .888 0 .888.672 0 .468-.3.563-.48.623.349.024.372.252.42.576.024.204.061.552.132.671h-.539c-.013-.12-.097-.768-.097-.803-.035-.144-.084-.216-.264-.216h-.443v1.019h-.492v-2.542h-.001zm.48 1.115h.396c.323 0 .384-.228.384-.359 0-.348-.24-.348-.372-.348h-.407v.707h-.001z" fill="#80BD01"/></svg>